<svg width="25" height="30" viewBox="0 0 25 30" fill="none" xmlns="http://www.w3.org/2000/svg">
<path d="M12.3804 6.11376C12.9675 4.96989 14.6026 4.96989 15.1897 6.11376L17.9026 11.3987C18.0532 11.6921 18.2919 11.931 18.5852 12.0818L23.8686 14.799C25.011 15.3865 25.011 17.0197 23.8686 17.6074L18.5852 20.3245C18.2919 20.4753 18.0532 20.7142 17.9026 21.0076L15.1897 26.2925C14.6026 27.4364 12.9675 27.4364 12.3804 26.2925L9.66749 21.0076C9.5169 20.7142 9.27821 20.4753 8.98494 20.3245L3.70154 17.6074C2.55912 17.0197 2.55912 15.3865 3.70154 14.799L8.98494 12.0818C9.27821 11.931 9.5169 11.6921 9.66749 11.3987L12.3804 6.11376Z" fill="#0561E6"/>
<path d="M18.3611 7.04633C18.1139 7.4987 17.4648 7.4987 17.2177 7.04633L16.4986 5.73039C16.4388 5.62094 16.3489 5.53097 16.2396 5.47111L14.9248 4.75139C14.473 4.50398 14.473 3.85428 14.9248 3.60687L16.2396 2.88715C16.3489 2.8273 16.4388 2.73732 16.4986 2.62788L17.2177 1.31193C17.4648 0.859564 18.1139 0.859564 18.3611 1.31193L19.0801 2.62788C19.1399 2.73732 19.2297 2.8273 19.3392 2.88715L20.6538 3.60687C21.1058 3.85428 21.1058 4.50398 20.6538 4.75139L19.3392 5.47111C19.2297 5.53097 19.1399 5.62094 19.0801 5.73039L18.3611 7.04633Z" fill="#0561E6"/>
<path d="M12.532 16.7471C12.527 17.0768 12.5813 17.3554 12.6947 17.5831C12.8081 17.8059 12.9682 17.9755 13.1753 18.0916C13.3822 18.2077 13.6238 18.2658 13.8998 18.2658C14.2153 18.2658 14.4937 18.2054 14.7353 18.0847C14.9817 17.9592 15.1616 17.7433 15.275 17.4368H17.5226C17.4388 17.9615 17.217 18.412 16.8571 18.7883C16.5022 19.1598 16.0685 19.4454 15.5559 19.645C15.0433 19.8448 14.5135 19.9447 13.9663 19.9447C13.1875 19.9447 12.5025 19.7937 11.911 19.4918C11.3244 19.1899 10.8661 18.765 10.5358 18.2169C10.2105 17.6689 10.0479 17.0258 10.0479 16.2873C10.0479 15.586 10.1982 14.9474 10.4988 14.3716C10.7995 13.791 11.2333 13.329 11.8001 12.9853C12.367 12.6371 13.0496 12.4629 13.848 12.4629C14.6564 12.4629 15.3316 12.6231 15.8738 12.9435C16.416 13.2593 16.8226 13.6959 17.0937 14.2532C17.3698 14.8058 17.5078 15.4398 17.5078 16.155V16.7471H12.532ZM12.5246 15.3818H15.1714C15.1714 15.1449 15.1222 14.929 15.0236 14.7339C14.925 14.5341 14.7772 14.3762 14.58 14.2601C14.3828 14.144 14.1389 14.0859 13.848 14.0859C13.5819 14.0859 13.3503 14.1487 13.153 14.2741C12.9559 14.3948 12.8007 14.555 12.6872 14.7548C12.5739 14.9499 12.5198 15.1588 12.5246 15.3818Z" fill="white"/>
</svg>
