<svg width="1440" height="785" viewBox="0 0 1440 785" fill="none" xmlns="http://www.w3.org/2000/svg">
<g clip-path="url(#clip0_55_129)">
<rect width="1440" height="785" fill="#232323"/>
<path d="M148.939 0H9.06093C4.05672 0 0 2.97283 0 6.64V159.36C0 163.027 4.05672 166 9.06093 166H148.939C153.943 166 158 163.027 158 159.36V6.64C158 2.97283 153.943 0 148.939 0Z" fill="url(#paint0_radial_55_129)" fill-opacity="0.15"/>
<g opacity="0.6">
<path d="M527.719 683.457C525.344 683.457 525.341 687.149 527.719 687.149C530.094 687.149 530.099 683.457 527.719 683.457Z" fill="#5F6363"/>
<path d="M687.452 690.58C685.079 690.58 685.075 694.272 687.452 694.272C689.83 694.272 689.835 690.58 687.452 690.58Z" fill="#5F6363"/>
<path d="M679.141 590.088C676.768 590.088 676.763 593.781 679.141 593.781C681.519 593.781 681.521 590.088 679.141 590.088Z" fill="#5F6363"/>
<path d="M651.844 732.236C649.469 732.236 649.466 735.928 651.844 735.928C654.219 735.928 654.224 732.236 651.844 732.236Z" fill="#5F6363"/>
<path d="M216.607 753.631C214.232 753.631 214.228 757.324 216.607 757.324C218.983 757.324 218.987 753.631 216.607 753.631Z" fill="#5F6363"/>
<path d="M253.632 704.072C251.256 704.072 251.252 707.764 253.632 707.764C256.005 707.764 256.01 704.072 253.632 704.072Z" fill="#5F6363"/>
<path d="M337.335 680.733C334.962 680.733 334.958 684.422 337.335 684.422C339.713 684.422 339.715 680.733 337.335 680.733Z" fill="#5F6363"/>
<path d="M318.824 612.318C316.45 612.318 316.446 616.01 318.824 616.01C321.201 616.01 321.204 612.318 318.824 612.318Z" fill="#5F6363"/>
<path d="M54.7478 27.0644C52.3719 27.0644 52.3692 30.7561 54.7478 30.7561C57.1232 30.7561 57.1266 27.0644 54.7478 27.0644Z" fill="#5F6363"/>
<path d="M146.388 79.3008C144.015 79.3008 144.01 82.9924 146.388 82.9924C148.763 82.9924 148.768 79.3008 146.388 79.3008Z" fill="#5F6363"/>
<path d="M180.295 164.525C177.92 164.525 177.917 168.219 180.295 168.219C182.671 168.219 182.675 164.525 180.295 164.525Z" fill="#5F6363"/>
<path d="M281.101 121.455C278.725 121.455 278.723 125.145 281.101 125.145C283.476 125.145 283.481 121.455 281.101 121.455Z" fill="#5F6363"/>
<path d="M339.751 203.932C337.373 203.932 337.371 207.623 339.751 207.623C342.124 207.623 342.129 203.932 339.751 203.932Z" fill="#5F6363"/>
<path d="M496.455 192.934C494.08 192.934 494.075 196.625 496.455 196.625C498.831 196.625 498.835 192.934 496.455 192.934Z" fill="#5F6363"/>
<path d="M1353.99 715.328C1351.62 715.328 1351.62 719.02 1353.99 719.02C1356.37 719.02 1356.37 715.328 1353.99 715.328Z" fill="#5F6363"/>
<path d="M1285.82 625.683C1283.44 625.683 1283.44 629.377 1285.82 629.377C1288.19 629.377 1288.19 625.683 1285.82 625.683Z" fill="#5F6363"/>
<path d="M1348.16 523.922C1345.78 523.922 1345.78 527.614 1348.16 527.614C1350.54 527.614 1350.54 523.922 1348.16 523.922Z" fill="#5F6363"/>
<path d="M1384.47 395.645C1382.09 395.645 1382.09 399.336 1384.47 399.336C1386.84 399.336 1386.85 395.645 1384.47 395.645Z" fill="#5F6363"/>
<path d="M184.845 292.787C182.472 292.787 182.467 296.479 184.845 296.479C187.22 296.479 187.225 292.787 184.845 292.787Z" fill="#5F6363"/>
<path d="M85.7784 361.896C83.403 361.896 83.3984 365.588 85.7784 365.588C88.1516 365.588 88.1561 361.896 85.7784 361.896Z" fill="#5F6363"/>
<path d="M1285.18 267.094C1282.8 267.094 1282.8 270.785 1285.18 270.785C1287.55 270.785 1287.56 267.094 1285.18 267.094Z" fill="#5F6363"/>
<path d="M1340.1 134.539C1337.73 134.539 1337.73 138.231 1340.1 138.231C1342.48 138.231 1342.48 134.539 1340.1 134.539Z" fill="#5F6363"/>
<path d="M980.97 353.939C978.592 353.939 978.59 357.631 980.97 357.631C983.345 357.631 983.347 353.939 980.97 353.939Z" fill="#5F6363"/>
<path d="M1001.44 699.929C999.062 699.929 999.058 703.623 1001.44 703.623C1003.82 703.623 1003.82 699.929 1001.44 699.929Z" fill="#5F6363"/>
<path d="M1043.67 573.943C1041.29 573.943 1041.29 577.635 1043.67 577.635C1046.05 577.635 1046.05 573.943 1043.67 573.943Z" fill="#5F6363"/>
<path d="M1068.41 702.773C1066.03 702.773 1066.03 706.465 1068.41 706.465C1070.78 706.465 1070.78 702.773 1068.41 702.773Z" fill="#5F6363"/>
<path d="M69.4302 706.898C67.055 706.898 67.0514 710.59 69.4302 710.59C71.8054 710.59 71.8099 706.898 69.4302 706.898Z" fill="#515355"/>
<path d="M198.279 555.211C195.903 555.211 195.901 558.905 198.279 558.905C200.654 558.905 200.658 555.211 198.279 555.211Z" fill="#515355"/>
<path d="M450.011 731.217C447.636 731.217 447.633 734.908 450.011 734.908C452.386 734.908 452.391 731.217 450.011 731.217Z" fill="#515355"/>
<path d="M88.7456 161.279C86.3695 161.279 86.3652 164.971 88.7456 164.971C91.1199 164.971 91.1244 161.279 88.7456 161.279Z" fill="#515355"/>
<path d="M396.205 30.6075C393.83 30.6075 393.828 34.2991 396.205 34.2991C398.581 34.2991 398.585 30.6075 396.205 30.6075Z" fill="#515355"/>
<path d="M1149.48 755.06C1147.11 755.06 1147.11 758.754 1149.48 758.754C1151.86 758.754 1151.86 755.06 1149.48 755.06Z" fill="#515355"/>
<path d="M1401.22 628.234C1398.84 628.234 1398.84 631.926 1401.22 631.926C1403.59 631.926 1403.6 628.234 1401.22 628.234Z" fill="#515355"/>
<path d="M744.021 205.477C741.644 205.477 741.641 209.166 744.021 209.166C746.397 209.166 746.401 205.477 744.021 205.477Z" fill="#515355"/>
<path d="M1001.52 178.575C999.143 178.575 999.139 182.264 1001.52 182.264C1003.89 182.264 1003.9 178.575 1001.52 178.575Z" fill="#515355"/>
<path d="M555.701 530.231C553.326 530.231 553.321 533.922 555.701 533.922C558.077 533.922 558.081 530.231 555.701 530.231Z" fill="#515355"/>
<path d="M59.9201 597.488C57.5458 597.488 57.5413 601.18 59.9201 601.18C62.2962 601.18 62.2996 597.488 59.9201 597.488Z" fill="#B7E5BE"/>
<path d="M1268.63 760.828C1266.25 760.828 1266.25 764.518 1268.63 764.518C1271 764.518 1271 760.828 1268.63 760.828Z" fill="#B7E5BE"/>
<path d="M1080.3 357.283C1077.93 357.283 1077.92 360.975 1080.3 360.975C1082.68 360.975 1082.68 357.283 1080.3 357.283Z" fill="#B7E5BE"/>
<path d="M859.318 134.377C856.945 134.377 856.94 138.068 859.318 138.068C861.693 138.068 861.698 134.377 859.318 134.377Z" fill="#B7E5BE"/>
<path d="M588.369 437.994C585.994 437.994 585.989 441.684 588.369 441.684C590.745 441.684 590.747 437.994 588.369 437.994Z" fill="#B7E5BE"/>
<path d="M876.612 726.238C874.237 726.238 874.232 729.93 876.612 729.93C878.988 729.93 878.992 726.238 876.612 726.238Z" fill="#B7E5BE"/>
<path d="M364.518 372.209C362.142 372.209 362.138 375.901 364.518 375.901C366.893 375.901 366.898 372.209 364.518 372.209Z" fill="#B7E5BE"/>
<path d="M588.369 230.457C585.994 230.457 585.989 234.149 588.369 234.149C590.745 234.149 590.747 230.457 588.369 230.457Z" fill="#B7E5BE"/>
<path d="M744.021 42.1387C741.644 42.1387 741.641 45.8303 744.021 45.8303C746.397 45.8303 746.401 42.1387 744.021 42.1387Z" fill="#B7E5BE"/>
<path d="M1191.76 138.219C1189.38 138.219 1189.38 141.91 1191.76 141.91C1194.14 141.91 1194.14 138.219 1191.76 138.219Z" fill="#B7E5BE"/>
<path d="M188.67 265.045C186.295 265.045 186.29 268.739 188.67 268.739C191.045 268.739 191.05 265.045 188.67 265.045Z" fill="#B7E5BE"/>
<path d="M156.858 586.377C154.483 586.377 154.479 590.068 156.858 590.068C159.234 590.068 159.236 586.377 156.858 586.377Z" fill="#DDA481"/>
<path d="M471.148 668.588C468.775 668.588 468.77 672.281 471.148 672.281C473.525 672.281 473.528 668.588 471.148 668.588Z" fill="#DDA481"/>
<path d="M530.65 381.016C528.275 381.016 528.271 384.707 530.65 384.707C533.026 384.707 533.028 381.016 530.65 381.016Z" fill="#DDA481"/>
<path d="M903.36 677.374C900.985 677.374 900.98 681.067 903.36 681.067C905.734 681.067 905.738 677.374 903.36 677.374Z" fill="#DDA481"/>
<path d="M786.296 553.291C783.921 553.291 783.916 556.983 786.296 556.983C788.671 556.983 788.676 553.291 786.296 553.291Z" fill="#DDA481"/>
<path d="M936.183 332.303C933.807 332.303 933.803 335.994 936.183 335.994C938.558 335.994 938.56 332.303 936.183 332.303Z" fill="#DDA481"/>
<path d="M809.534 363.645C807.16 363.645 807.156 367.336 809.534 367.336C811.909 367.336 811.913 363.645 809.534 363.645Z" fill="#DDA481"/>
<path d="M657.548 205.477C655.172 205.477 655.168 209.166 657.548 209.166C659.923 209.166 659.928 205.477 657.548 205.477Z" fill="#DDA481"/>
<path d="M484.601 451.443C482.225 451.443 482.221 455.137 484.601 455.137C486.976 455.137 486.981 451.443 484.601 451.443Z" fill="#DDA481"/>
<path d="M38.7828 257.361C36.4076 257.361 36.4039 261.053 38.7828 261.053C41.1589 261.053 41.1622 257.361 38.7828 257.361Z" fill="#DDA481"/>
<path d="M50.3124 82.4903C47.9372 82.4903 47.9327 86.1819 50.3124 86.1819C52.6876 86.1819 52.691 82.4903 50.3124 82.4903Z" fill="#DDA481"/>
<path d="M1272.47 21.0001C1270.09 21.0001 1270.09 24.6917 1272.47 24.6917C1274.84 24.6917 1274.85 21.0001 1272.47 21.0001Z" fill="#DDA481"/>
<path d="M1018.81 105.551C1016.44 105.551 1016.43 109.242 1018.81 109.242C1021.19 109.242 1021.19 105.551 1018.81 105.551Z" fill="#DDA481"/>
</g>
<g opacity="0.1">
<mask id="mask0_55_129" style="mask-type:luminance" maskUnits="userSpaceOnUse" x="-7" y="-87" width="1454" height="960">
<path d="M-7 -87H1447V873H-7V-87Z" fill="white"/>
</mask>
<g mask="url(#mask0_55_129)">
<mask id="mask1_55_129" style="mask-type:luminance" maskUnits="userSpaceOnUse" x="-7" y="-87" width="1454" height="960">
<path d="M1447 -87H-7V873H1447V-87Z" fill="white"/>
</mask>
<g mask="url(#mask1_55_129)">
<path opacity="0.3" d="M-3671.27 765H5111.27C5114.13 765.582 5115.59 765.873 5118.45 766.454H-3678.45C-3675.58 765.873 -3674.14 765.582 -3671.27 765Z" fill="url(#paint1_linear_55_129)"/>
<path opacity="0.4" d="M-3518.09 711.72H4958.07C4960.98 712.302 4962.39 712.593 4965.29 713.175H-3525.27C-3522.4 712.593 -3520.96 712.302 -3518.09 711.72H-3518.09Z" fill="url(#paint2_linear_55_129)"/>
<path opacity="0.4" d="M-3364.91 658.44H4804.91C4807.79 659.022 4809.22 659.313 4812.09 659.894H-3372.09C-3369.21 659.313 -3367.78 659.022 -3364.91 658.44Z" fill="url(#paint3_linear_55_129)"/>
<path opacity="0.5" d="M-3211.73 605.16H4651.73C4654.6 605.742 4656.04 606.033 4658.91 606.614H-3218.91C-3216.04 606.033 -3214.6 605.742 -3211.73 605.16Z" fill="url(#paint4_linear_55_129)"/>
<path opacity="0.6" d="M-3058.55 551.875H4498.55C4501.43 552.457 4502.86 552.748 4505.73 553.33H-3065.73C-3062.86 552.748 -3061.42 552.457 -3058.55 551.875H-3058.55Z" fill="url(#paint5_linear_55_129)"/>
<path d="M-2905.37 498.595H4345.37C4348.25 499.177 4349.68 499.468 4352.55 500.05H-2912.55C-2909.67 499.468 -2908.24 499.177 -2905.37 498.595Z" fill="url(#paint6_linear_55_129)"/>
<path d="M-2752.19 445.315H4192.19C4195.06 445.897 4196.49 446.188 4199.36 446.77H-2759.37C-2756.49 446.188 -2755.06 445.897 -2752.19 445.315Z" fill="url(#paint7_linear_55_129)"/>
<path d="M-2599.01 392.035H4039.01C4041.89 392.617 4043.32 392.908 4046.19 393.49H-2606.19C-2603.32 392.908 -2601.88 392.617 -2599.01 392.035H-2599.01Z" fill="url(#paint8_linear_55_129)"/>
<path d="M-2445.83 338.755H3885.83C3888.7 339.337 3890.14 339.628 3893.01 340.21H-2453.01C-2450.14 339.628 -2448.7 339.337 -2445.83 338.755H-2445.83Z" fill="url(#paint9_linear_55_129)"/>
<path d="M-2292.65 285.475H3732.65C3735.52 286.057 3736.96 286.348 3739.83 286.93H-2299.83C-2296.95 286.348 -2295.52 286.057 -2292.65 285.475Z" fill="url(#paint10_linear_55_129)"/>
<path opacity="0.7" d="M-2139.47 232.195H3579.46C3582.34 232.777 3583.77 233.068 3586.64 233.65H-2146.65C-2143.77 233.068 -2142.34 232.777 -2139.47 232.195H-2139.47Z" fill="url(#paint11_linear_55_129)"/>
<path opacity="0.6" d="M-1986.29 178.91H3426.29C3429.16 179.492 3430.6 179.783 3433.46 180.365H-1993.47C-1990.59 179.783 -1989.16 179.492 -1986.29 178.91H-1986.29Z" fill="url(#paint12_linear_55_129)"/>
<path opacity="0.5" d="M-1833.11 125.63H3273.11C3275.98 126.212 3277.42 126.503 3280.29 127.085H-1840.29C-1837.41 126.503 -1835.98 126.212 -1833.11 125.63Z" fill="url(#paint13_linear_55_129)"/>
<path opacity="0.4" d="M-1679.93 72.3502H3119.93C3122.8 72.932 3124.24 73.2229 3127.11 73.8048H-1687.11C-1684.23 73.2229 -1682.8 72.932 -1679.93 72.3502Z" fill="url(#paint14_linear_55_129)"/>
<path opacity="0.3" d="M-1526.74 19.0708H2966.75C2969.62 19.6526 2971.05 19.9435 2973.92 20.5253H-1533.93C-1531.05 19.9435 -1529.62 19.6526 -1526.75 19.0708H-1526.74Z" fill="url(#paint15_linear_55_129)"/>
<path d="M-2737.67 874.532H-2737.68V873.078C-2735.87 873.087 -2561.84 872.971 -2305.5 858.217C-2068.91 844.598 -1711.91 815.361 -1354.72 753.407C-953.283 683.783 -633.441 587.875 -404.078 468.36C-117.548 319.056 27.736 132.282 27.736 -86.7625H29.19C29.19 28.0642 -10.8532 134.998 -89.835 231.065C-161.595 318.353 -267.097 398.624 -403.414 469.655C-632.918 589.242 -952.905 685.194 -1354.49 754.847C-1711.75 816.806 -2068.81 846.052 -2305.43 859.672C-2561.11 874.392 -2735 874.537 -2737.67 874.537L-2737.67 874.532Z" fill="url(#paint16_linear_55_129)"/>
<path d="M-2560.35 874.532H-2560.36V873.078H-2560.35C-2557.92 873.078 -2392.95 872.932 -2150.35 858.207C-1925.89 844.583 -1587.2 815.342 -1248.33 753.383C-867.491 683.754 -564.061 587.851 -346.46 468.336C-74.6294 319.036 63.2 132.273 63.2 -86.7625H64.654C64.654 28.0497 26.6659 134.968 -48.2636 231.032C-116.345 318.314 -216.443 398.59 -345.771 469.621C-563.508 589.208 -867.094 685.165 -1248.09 754.823C-1587.03 816.792 -1925.79 846.042 -2150.28 859.667C-2392.89 874.392 -2557.88 874.537 -2560.35 874.537L-2560.35 874.532Z" fill="url(#paint17_linear_55_129)"/>
<path d="M-2383.03 874.532H-2383.05V873.078H-2383.03C-2380.75 873.078 -2224.7 872.927 -1995.19 858.198C-1782.88 844.568 -1462.5 815.318 -1141.95 753.359C-781.7 683.725 -494.676 587.822 -288.847 468.316C-31.7121 319.022 98.6625 132.263 98.6625 -86.7625H100.117C100.117 28.0351 64.1834 134.944 -6.69428 230.993C-71.0968 318.275 -165.785 398.547 -288.13 469.577C-494.104 589.165 -781.284 685.126 -1141.7 754.789C-1462.32 816.762 -1782.76 846.018 -1995.13 859.652C-2224.65 874.387 -2380.74 874.537 -2383.04 874.537L-2383.03 874.532Z" fill="url(#paint18_linear_55_129)"/>
<path d="M-2205.72 874.532H-2205.73V873.078C-2204.17 873.107 -2056.92 872.956 -1840.04 858.188C-1639.86 844.554 -1337.79 815.298 -1035.56 753.335C-695.909 683.701 -425.296 587.798 -231.235 468.297C11.2001 319.007 134.126 132.258 134.126 -86.7625H135.58C135.58 28.0206 101.697 134.915 34.876 230.954C-25.8479 318.232 -115.128 398.503 -230.484 469.538C-424.695 589.131 -695.473 685.092 -1035.29 754.765C-1337.6 816.743 -1639.74 846.008 -1839.97 859.647C-2056.43 874.387 -2203.62 874.537 -2205.72 874.537V874.532Z" fill="url(#paint19_linear_55_129)"/>
<path d="M-2028.4 874.532H-2028.41V873.078H-2028.4C-2026.47 873.078 -1888.23 872.922 -1684.89 858.178C-1496.84 844.539 -1213.09 815.274 -929.185 753.305C-610.129 683.667 -355.922 587.764 -173.629 468.273C54.1156 318.993 169.588 132.248 169.588 -86.7625H171.042C171.042 28.0012 139.213 134.886 76.4442 230.92C19.3989 318.198 -64.4721 398.464 -172.839 469.499C-355.287 589.092 -609.659 685.058 -928.895 754.736C-1212.88 816.724 -1496.72 845.989 -1684.81 859.633C-1888.18 874.382 -2026.45 874.537 -2028.4 874.537V874.532Z" fill="url(#paint20_linear_55_129)"/>
<path d="M-1851.09 874.532V873.078C-1849.58 873.078 -1720.17 872.937 -1529.74 858.164C-1353.82 844.52 -1088.38 815.25 -822.8 753.276C-524.337 683.633 -286.54 587.735 -116.015 468.253C97.0301 318.978 205.053 132.244 205.053 -86.7625H206.507C206.507 27.9866 176.733 134.857 118.016 230.881C64.6494 318.154 -13.8132 398.425 -115.191 469.456C-285.871 589.048 -523.843 685.019 -822.494 754.707C-1088.17 816.695 -1353.69 845.975 -1529.66 859.623C-1720.11 874.396 -1849.55 874.537 -1851.1 874.537L-1851.09 874.532Z" fill="url(#paint21_linear_55_129)"/>
<path d="M-1673.78 874.532V873.078C-1672.38 873.078 -1551.9 872.932 -1374.59 858.159C-1210.81 844.51 -963.683 815.23 -716.42 753.257C-438.551 683.608 -217.165 587.715 -58.4077 468.239C139.947 318.964 240.52 132.234 240.52 -86.7625H241.974C241.974 27.9721 214.256 134.828 159.595 230.838C109.907 318.105 36.8536 398.372 -57.5352 469.407C-216.453 589.005 -438.018 684.981 -716.086 754.673C-963.445 816.67 -1210.66 845.955 -1374.49 859.608C-1551.84 874.387 -1672.36 874.532 -1673.77 874.532H-1673.78Z" fill="url(#paint22_linear_55_129)"/>
<path d="M-1496.46 874.532V873.078C-1495.19 873.078 -1383.63 872.932 -1219.44 858.144C-1067.8 844.491 -838.979 815.206 -610.042 753.228C-205.844 643.807 275.982 409.252 275.982 -86.7625H277.436C277.436 132.695 184.128 319.802 0.11012 469.364C-147.044 588.961 -352.209 684.942 -609.683 754.644C-838.727 816.646 -1067.63 845.941 -1219.34 859.599C-1383.57 874.387 -1495.17 874.532 -1496.46 874.532Z" fill="url(#paint23_linear_55_129)"/>
<path d="M-1319.14 874.532V873.078C-1317.99 873.078 -1215.35 872.927 -1064.29 858.139C-924.784 844.481 -714.279 815.192 -503.662 753.209C-131.816 643.783 311.446 409.228 311.446 -86.7625H312.9C312.9 132.665 227.06 319.759 57.7615 469.315C-77.6253 588.918 -266.388 684.908 -503.279 754.615C-714.007 816.622 -924.609 845.926 -1064.18 859.589C-1215.29 874.382 -1317.97 874.537 -1319.14 874.537L-1319.14 874.532Z" fill="url(#paint24_linear_55_129)"/>
<path d="M-1141.83 874.532V873.078C-1140.79 873.078 -1047.08 872.922 -909.144 858.125C-781.773 844.462 -589.579 815.167 -397.292 753.184C-57.793 643.754 346.909 409.204 346.909 -86.7625H348.363C348.363 132.636 269.987 319.71 115.412 469.262C-8.21157 588.864 -180.569 684.864 -396.876 754.581C-589.288 816.598 -781.584 845.911 -909.022 859.579C-1046.93 874.367 -1140.67 874.532 -1141.83 874.532Z" fill="url(#paint25_linear_55_129)"/>
<path d="M-964.512 874.532V873.078C-963.576 873.078 -878.794 872.918 -753.997 858.115C-638.762 844.447 -464.883 815.148 -290.917 753.165C16.2312 643.73 382.373 409.175 382.373 -86.7625H383.827C383.827 132.607 312.915 319.662 173.064 469.209C61.2082 588.816 -94.7429 684.821 -290.461 754.551C-464.558 816.578 -638.554 845.897 -753.861 859.57C-878.721 874.377 -963.567 874.537 -964.507 874.537L-964.512 874.532Z" fill="url(#paint26_linear_55_129)"/>
<path d="M-787.191 874.532V873.078C-786.377 873.078 -710.512 872.918 -598.85 858.11C-495.752 844.438 -340.188 815.129 -184.547 753.145C90.254 643.705 417.835 409.155 417.835 -86.7625H419.289C419.289 132.578 355.846 319.613 230.72 469.15C130.632 588.762 -8.91858 684.772 -184.048 754.513C-339.83 816.549 -495.524 845.878 -598.7 859.56C-710.381 874.372 -786.295 874.537 -787.191 874.537V874.532Z" fill="url(#paint27_linear_55_129)"/>
<path d="M-609.877 874.532V873.078C-609.164 873.078 -542.232 872.913 -443.704 858.096C-352.747 844.418 -215.499 815.109 -78.1831 753.126C164.276 643.686 453.298 409.131 453.298 -86.7625H454.752C454.752 132.544 398.773 319.56 288.375 469.082C200.054 588.699 76.9151 684.724 -77.6257 754.474C-215.097 816.52 -352.485 845.858 -443.534 859.545C-542.145 874.367 -609.155 874.532 -609.877 874.532Z" fill="url(#paint28_linear_55_129)"/>
<path d="M-432.562 874.532V873.078C-431.951 873.078 -373.946 872.908 -288.562 858.091C-209.746 844.408 -90.8134 815.094 28.1771 753.111C238.295 643.667 488.761 409.111 488.761 -86.7625H490.215C490.215 132.51 441.704 319.497 346.031 469.015C269.483 588.641 162.75 684.67 28.7975 754.43C-90.3578 816.491 -209.45 845.839 -288.368 859.531C-373.854 874.362 -431.946 874.532 -432.562 874.532Z" fill="url(#paint29_linear_55_129)"/>
<path d="M-255.246 874.532V873.078C-254.761 873.078 -205.679 872.908 -133.425 858.076C-66.7447 844.394 33.8624 815.075 134.528 753.097C312.308 643.652 524.223 409.092 524.223 -86.7625H525.677C525.677 132.476 484.631 319.439 403.687 468.937C338.912 588.564 248.594 684.598 135.235 754.372C34.3858 816.452 -66.4006 845.814 -133.192 859.516C-205.544 874.362 -254.718 874.532 -255.241 874.532H-255.246Z" fill="url(#paint30_linear_55_129)"/>
<path d="M-77.9258 874.532V873.078C-77.5284 873.078 -37.3834 872.903 21.712 858.067C76.2515 844.379 158.543 815.056 240.873 753.092C386.317 643.638 559.687 409.073 559.687 -86.7625H561.141C561.141 132.438 527.563 319.376 461.339 468.855C408.34 588.481 334.438 684.52 241.683 754.314C159.149 816.408 76.6587 845.79 21.9931 859.502C-37.2526 874.362 -77.5235 874.537 -77.9258 874.537V874.532Z" fill="url(#paint31_linear_55_129)"/>
<path d="M99.3896 874.532V873.078C99.6998 873.078 130.903 872.893 176.844 858.062C219.238 844.37 283.209 815.046 347.219 753.097C460.321 643.618 595.15 409.044 595.15 -86.7625H596.604C596.604 132.399 570.491 319.308 518.99 468.767C477.769 588.384 420.287 684.428 348.14 754.227C283.922 816.355 219.732 845.756 177.188 859.478C131.067 874.358 99.6998 874.532 99.3896 874.532Z" fill="url(#paint32_linear_55_129)"/>
<path d="M276.71 874.532V873.078C277.592 873.078 366.136 871.613 453.565 753.073C534.334 643.57 630.613 408.976 630.613 -86.7625H632.067C632.067 132.365 613.417 319.24 576.636 468.675C547.197 588.273 506.141 684.307 454.612 754.11C408.719 816.273 362.835 845.703 332.422 859.439C299.417 874.353 276.933 874.537 276.71 874.537V874.532Z" fill="url(#paint33_linear_55_129)"/>
<path d="M454.024 874.532V873.078C454.548 873.078 507.556 871.497 559.954 752.888C608.367 643.303 666.076 408.675 666.076 -86.7673H667.53C667.53 132.316 656.339 319.162 634.277 468.573C616.621 588.137 591.99 684.151 561.078 753.941C533.534 816.122 505.976 845.582 487.709 859.342C467.794 874.343 454.577 874.527 454.024 874.527V874.532Z" fill="url(#paint34_linear_55_129)"/>
<path d="M631.344 874.532V873.078V873.805L631.311 873.078C631.49 873.063 649.277 870.164 666.715 749.199C682.603 639.002 701.544 404.525 701.544 -86.7625H702.998C702.998 409.33 683.708 644.122 667.525 753.732C649.902 873.087 632.096 874.532 631.344 874.537V874.532Z" fill="url(#paint35_linear_55_129)"/>
<path d="M808.655 874.532C807.904 874.532 790.097 873.063 772.475 753.703C756.292 644.084 737.007 409.286 737.007 -86.7673H738.461C738.461 404.481 757.402 638.968 773.284 749.17C790.722 870.144 808.515 873.063 808.689 873.078L808.65 874.532H808.655Z" fill="url(#paint36_linear_55_129)"/>
<path d="M985.971 874.532C985.419 874.532 972.202 874.329 952.292 859.313C934.02 845.538 906.462 816.059 878.918 753.863C848.006 684.059 823.38 588.04 805.719 468.486C783.652 319.085 772.466 132.273 772.466 -86.7625H773.92C773.92 408.573 831.629 643.201 880.042 752.816C932.44 871.448 985.448 873.078 985.976 873.082V874.537L985.971 874.532Z" fill="url(#paint37_linear_55_129)"/>
<path d="M1163.29 874.532C1163.07 874.532 1140.58 874.328 1107.58 859.385C1077.17 845.621 1031.28 816.156 985.389 753.97C933.86 684.142 892.804 588.103 863.365 468.52C826.579 319.104 807.934 132.278 807.934 -86.7673H809.388C809.388 408.787 905.671 643.395 986.441 752.942C1073.87 871.521 1162.41 873.073 1163.3 873.078V874.532H1163.29Z" fill="url(#paint38_linear_55_129)"/>
<path d="M1340.61 874.532C1340.3 874.532 1308.93 874.324 1262.81 859.405C1220.27 845.645 1156.08 816.195 1091.87 754.038C1019.72 684.2 962.232 588.151 921.016 468.554C869.505 319.124 843.396 132.287 843.396 -86.7625H844.85C844.85 408.787 979.68 643.376 1092.79 752.913C1156.79 814.901 1220.76 844.273 1263.16 857.994C1309.1 872.864 1340.3 873.082 1340.61 873.082V874.537V874.532Z" fill="url(#paint39_linear_55_129)"/>
<path d="M1517.93 874.532C1517.52 874.532 1477.25 874.319 1418.01 859.41C1363.34 845.65 1280.85 816.21 1198.32 754.067C1105.56 684.229 1031.66 588.176 978.662 468.583C912.437 319.138 878.859 132.292 878.859 -86.7625H880.313C880.313 408.801 1053.72 643.385 1199.19 752.913C1356.76 871.55 1516.34 873.082 1517.93 873.082V874.537V874.532Z" fill="url(#paint40_linear_55_129)"/>
<path d="M1695.24 874.532C1694.75 874.532 1645.57 874.314 1573.19 859.405C1506.4 845.645 1405.61 816.205 1304.76 754.076C1191.41 684.239 1101.09 588.195 1036.32 468.602C955.369 319.148 914.322 132.297 914.322 -86.7625H915.776C915.776 408.69 1127.69 643.269 1305.47 752.811C1406.13 814.838 1506.74 844.234 1573.43 857.975C1645.68 872.859 1694.76 873.082 1695.25 873.082V874.537L1695.24 874.532Z" fill="url(#paint41_linear_55_129)"/>
<path d="M1872.56 874.532C1871.99 874.532 1813.88 874.309 1728.36 859.4C1649.45 845.64 1530.36 816.2 1411.2 754.081C1277.25 684.248 1170.52 588.205 1093.97 468.622C998.296 319.158 949.786 132.297 949.786 -86.7625H951.24C951.24 408.665 1201.74 643.245 1411.87 752.796C1530.86 814.833 1649.8 844.229 1728.62 857.974C1814.01 872.864 1871.99 873.087 1872.56 873.087V874.542V874.532Z" fill="url(#paint42_linear_55_129)"/>
<path d="M2049.88 874.532C2049.21 874.532 1982.19 874.304 1883.53 859.395C1792.48 845.635 1655.1 816.185 1517.63 754.076C1363.08 684.248 1239.95 588.21 1151.63 468.636C1041.22 319.162 985.248 132.302 985.248 -86.7625H986.702C986.702 408.602 1275.75 643.187 1518.23 752.748C1655.55 814.794 1792.79 844.21 1883.75 857.96C1982.3 872.855 2049.21 873.082 2049.88 873.082V874.537V874.532Z" fill="url(#paint43_linear_55_129)"/>
<path d="M2227.19 874.532C2226.44 874.532 2150.49 874.304 2038.7 859.385C1935.52 845.621 1779.83 816.171 1624.04 754.057C1448.91 684.229 1309.36 588.2 1209.28 468.631C1084.16 319.162 1020.71 132.302 1020.71 -86.7625H1022.17C1022.17 408.53 1349.74 643.119 1624.55 752.694C1780.19 814.755 1935.75 844.185 2038.85 857.941C2150.56 872.845 2226.44 873.078 2227.19 873.078V874.532Z" fill="url(#paint44_linear_55_129)"/>
<path d="M2404.51 874.532C2403.67 874.532 2318.8 874.295 2193.86 859.376C2078.55 845.606 1904.56 816.156 1730.46 754.042C1534.74 684.215 1378.79 588.19 1266.94 468.636C1127.09 319.162 1056.17 132.297 1056.17 -86.7625H1057.63C1057.63 408.491 1423.78 643.085 1730.95 752.675C1904.92 814.741 2078.8 844.176 2194.03 857.936C2318.88 872.845 2403.67 873.082 2404.51 873.082V874.537L2404.51 874.532Z" fill="url(#paint45_linear_55_129)"/>
<path d="M2581.83 874.532C2580.9 874.532 2487.1 874.29 2349.02 859.366C2221.58 845.591 2029.28 816.132 1836.87 754.018C1620.56 684.19 1448.21 588.171 1324.59 468.627C1170.02 319.158 1091.64 132.297 1091.64 -86.7625H1093.09C1093.09 408.433 1497.79 643.027 1837.29 752.631C2029.57 814.711 2221.77 844.156 2349.14 857.926C2487.15 872.845 2580.89 873.087 2581.82 873.087V874.542L2581.83 874.532Z" fill="url(#paint46_linear_55_129)"/>
<path d="M2759.14 874.532C2758.13 874.532 2655.4 874.29 2504.18 859.356C2364.61 845.577 2154.01 816.113 1943.28 753.999C1706.39 684.171 1517.63 588.156 1382.24 468.622C1212.94 319.153 1127.1 132.292 1127.1 -86.7625H1128.56C1128.56 408.394 1571.83 642.998 1943.69 752.607C2154.31 814.692 2364.81 844.142 2504.32 857.916C2655.47 872.84 2758.12 873.082 2759.14 873.082V874.537V874.532Z" fill="url(#paint47_linear_55_129)"/>
<path d="M2936.46 874.532C2935.35 874.532 2823.71 874.28 2659.34 859.347C2507.64 845.567 2278.73 816.093 2049.69 753.979C1792.21 684.152 1587.05 588.137 1439.9 468.617C1255.87 319.143 1162.56 132.292 1162.56 -86.7625H1164.02C1164.02 408.35 1645.85 642.954 2050.07 752.578C2279.01 814.668 2507.82 844.122 2659.47 857.902C2823.77 872.83 2935.35 873.082 2936.46 873.082V874.537L2936.46 874.532Z" fill="url(#paint48_linear_55_129)"/>
<path d="M3113.78 874.532C3112.58 874.532 2992.01 874.28 2814.5 859.337C2650.67 845.548 2403.45 816.074 2156.09 753.955C1878.03 684.122 1656.46 588.113 1497.54 468.602C1403.15 397.616 1330.1 317.436 1280.41 230.29C1225.75 134.411 1198.03 27.7394 1198.03 -86.7625H1199.49C1199.49 131.802 1300.06 318.261 1498.41 467.434C1657.17 586.833 1878.55 682.76 2156.42 752.544C2403.68 814.639 2650.81 844.108 2814.59 857.892C2992.06 872.83 3112.59 873.082 3113.78 873.082V874.537V874.532Z" fill="url(#paint49_linear_55_129)"/>
<path d="M3291.1 874.532C3289.81 874.532 3160.31 874.275 2969.65 859.332C2793.69 845.538 2528.17 816.055 2262.49 753.931C1963.84 684.093 1725.87 588.093 1555.19 468.583C1453.81 397.602 1375.35 317.427 1321.98 230.285C1263.27 134.411 1233.49 27.7393 1233.49 -86.7668H1234.95C1234.95 131.768 1342.97 318.213 1556.02 467.385C1726.55 586.784 1964.34 682.716 2262.8 752.505C2528.39 814.61 2793.83 844.084 2969.74 857.873C3160.35 872.816 3289.81 873.073 3291.1 873.073V874.532Z" fill="url(#paint50_linear_55_129)"/>
<path d="M3468.41 874.532C3467.04 874.532 3328.61 874.27 3124.81 859.318C2936.71 845.519 2652.88 816.03 2368.89 753.907C2049.65 684.069 1795.28 588.064 1612.83 468.564C1504.47 397.587 1420.6 317.417 1363.55 230.28C1300.78 134.402 1268.95 27.7349 1268.95 -86.7717H1270.41C1270.41 131.745 1385.88 318.174 1613.63 467.347C1795.92 586.75 2050.13 682.682 2369.2 752.481C2653.1 814.59 2936.86 844.074 3124.91 857.868C3328.66 872.816 3467.04 873.078 3468.41 873.078V874.532H3468.41Z" fill="url(#paint51_linear_55_129)"/>
<path d="M3645.73 874.532C3644.27 874.532 3496.91 874.265 3279.97 859.313C3079.74 845.509 2777.6 816.016 2475.29 753.882C2135.47 684.04 1864.69 588.04 1670.48 468.549C1555.13 397.577 1465.84 317.413 1405.12 230.28C1338.3 134.406 1304.42 27.7345 1304.42 -86.7668H1305.87C1305.87 131.72 1428.8 318.139 1671.24 467.308C1865.31 586.711 2135.93 682.648 2475.58 752.452C2777.81 814.571 3079.88 844.054 3280.06 857.853C3496.96 872.806 3644.27 873.073 3645.73 873.073V874.527L3645.73 874.532Z" fill="url(#paint52_linear_55_129)"/>
<path d="M3823.05 874.532C3821.49 874.532 3665.21 874.261 3435.12 859.298C3222.76 845.49 2902.32 815.987 2581.69 753.853C2221.28 684.011 1934.1 588.011 1728.13 468.525C1605.79 397.558 1511.1 317.398 1446.69 230.275C1375.82 134.401 1339.88 27.7345 1339.88 -86.7673H1341.33C1341.33 131.696 1471.71 318.101 1728.85 467.264C1934.68 586.668 2221.7 682.61 2581.95 752.423C2902.5 814.547 3222.88 844.04 3435.19 857.848C3665.25 872.806 3821.5 873.078 3823.05 873.078V874.532Z" fill="url(#paint53_linear_55_129)"/>
<path d="M4000.37 874.532C3998.72 874.532 3833.51 874.256 3590.27 859.288C3365.78 845.475 3027.03 815.967 2688.09 753.829C2307.09 683.982 2003.5 587.987 1785.77 468.505C1656.44 397.538 1556.35 317.388 1488.27 230.27C1413.34 134.396 1375.35 27.7296 1375.35 -86.7673H1376.8C1376.8 131.671 1514.63 318.067 1786.47 467.23C2004.07 586.634 2307.51 682.581 2688.35 752.399C3027.23 814.522 3365.91 844.025 3590.37 857.834C3833.56 872.796 3998.73 873.073 4000.37 873.073V874.527L4000.37 874.532Z" fill="url(#paint54_linear_55_129)"/>
<path d="M4177.69 874.532C4175.95 874.532 4001.81 874.251 3745.43 859.279C3508.8 845.465 3151.74 815.948 2794.49 753.805C2392.9 683.953 2072.91 587.958 1843.41 468.486C1707.09 397.524 1601.59 317.373 1529.83 230.265C1450.85 134.401 1410.81 27.7345 1410.81 -86.7673H1412.26C1412.26 131.652 1557.55 318.028 1844.08 467.191C2073.45 586.595 2393.29 682.542 2794.73 752.37C3151.93 814.498 3508.93 844.011 3745.51 857.824C4001.85 872.791 4175.95 873.073 4177.68 873.073V874.527L4177.69 874.532Z" fill="url(#paint55_linear_55_129)"/>
</g>
</g>
</g>
</g>
<defs>
<radialGradient id="paint0_radial_55_129" cx="0" cy="0" r="1" gradientUnits="userSpaceOnUse" gradientTransform="translate(-19.5376 23.8625) rotate(16.9977) scale(159.304 196.661)">
<stop stop-color="#246EFF"/>
<stop offset="1" stop-color="#24A3FF" stop-opacity="0"/>
</radialGradient>
<linearGradient id="paint1_linear_55_129" x1="720.001" y1="765" x2="720.001" y2="766.454" gradientUnits="userSpaceOnUse">
<stop stop-color="#8C8C8C" stop-opacity="0"/>
<stop offset="0.469" stop-color="white" stop-opacity="0.54"/>
<stop offset="1" stop-color="#8C8C8C" stop-opacity="0"/>
</linearGradient>
<linearGradient id="paint2_linear_55_129" x1="720.001" y1="711.72" x2="720.001" y2="713.175" gradientUnits="userSpaceOnUse">
<stop stop-color="#8C8C8C" stop-opacity="0"/>
<stop offset="0.469" stop-color="white" stop-opacity="0.54"/>
<stop offset="1" stop-color="#8C8C8C" stop-opacity="0"/>
</linearGradient>
<linearGradient id="paint3_linear_55_129" x1="720" y1="658.44" x2="720" y2="659.894" gradientUnits="userSpaceOnUse">
<stop stop-color="#8C8C8C" stop-opacity="0"/>
<stop offset="0.469" stop-color="white" stop-opacity="0.54"/>
<stop offset="1" stop-color="#8C8C8C" stop-opacity="0"/>
</linearGradient>
<linearGradient id="paint4_linear_55_129" x1="719.995" y1="605.16" x2="719.995" y2="606.614" gradientUnits="userSpaceOnUse">
<stop stop-color="#8C8C8C" stop-opacity="0"/>
<stop offset="0.469" stop-color="white" stop-opacity="0.54"/>
<stop offset="1" stop-color="#8C8C8C" stop-opacity="0"/>
</linearGradient>
<linearGradient id="paint5_linear_55_129" x1="720" y1="551.875" x2="720" y2="553.33" gradientUnits="userSpaceOnUse">
<stop stop-color="#8C8C8C" stop-opacity="0"/>
<stop offset="0.469" stop-color="white" stop-opacity="0.54"/>
<stop offset="1" stop-color="#8C8C8C" stop-opacity="0"/>
</linearGradient>
<linearGradient id="paint6_linear_55_129" x1="720.001" y1="498.595" x2="720.001" y2="500.05" gradientUnits="userSpaceOnUse">
<stop stop-color="#8C8C8C" stop-opacity="0"/>
<stop offset="0.469" stop-color="white" stop-opacity="0.54"/>
<stop offset="1" stop-color="#8C8C8C" stop-opacity="0"/>
</linearGradient>
<linearGradient id="paint7_linear_55_129" x1="719.995" y1="445.315" x2="719.995" y2="446.77" gradientUnits="userSpaceOnUse">
<stop stop-color="#8C8C8C" stop-opacity="0"/>
<stop offset="0.469" stop-color="white" stop-opacity="0.54"/>
<stop offset="1" stop-color="#8C8C8C" stop-opacity="0"/>
</linearGradient>
<linearGradient id="paint8_linear_55_129" x1="720" y1="392.035" x2="720" y2="393.49" gradientUnits="userSpaceOnUse">
<stop stop-color="#8C8C8C" stop-opacity="0"/>
<stop offset="0.469" stop-color="white" stop-opacity="0.54"/>
<stop offset="1" stop-color="#8C8C8C" stop-opacity="0"/>
</linearGradient>
<linearGradient id="paint9_linear_55_129" x1="720.001" y1="338.755" x2="720.001" y2="340.21" gradientUnits="userSpaceOnUse">
<stop stop-color="#8C8C8C" stop-opacity="0"/>
<stop offset="0.469" stop-color="white" stop-opacity="0.54"/>
<stop offset="1" stop-color="#8C8C8C" stop-opacity="0"/>
</linearGradient>
<linearGradient id="paint10_linear_55_129" x1="720" y1="285.475" x2="720" y2="286.93" gradientUnits="userSpaceOnUse">
<stop stop-color="#8C8C8C" stop-opacity="0"/>
<stop offset="0.469" stop-color="white" stop-opacity="0.54"/>
<stop offset="1" stop-color="#8C8C8C" stop-opacity="0"/>
</linearGradient>
<linearGradient id="paint11_linear_55_129" x1="720" y1="232.195" x2="720" y2="233.65" gradientUnits="userSpaceOnUse">
<stop stop-color="#8C8C8C" stop-opacity="0"/>
<stop offset="0.469" stop-color="white" stop-opacity="0.54"/>
<stop offset="1" stop-color="#8C8C8C" stop-opacity="0"/>
</linearGradient>
<linearGradient id="paint12_linear_55_129" x1="720" y1="178.91" x2="720" y2="180.365" gradientUnits="userSpaceOnUse">
<stop stop-color="#8C8C8C" stop-opacity="0"/>
<stop offset="0.469" stop-color="white" stop-opacity="0.54"/>
<stop offset="1" stop-color="#8C8C8C" stop-opacity="0"/>
</linearGradient>
<linearGradient id="paint13_linear_55_129" x1="720" y1="125.63" x2="720" y2="127.085" gradientUnits="userSpaceOnUse">
<stop stop-color="#8C8C8C" stop-opacity="0"/>
<stop offset="0.469" stop-color="white" stop-opacity="0.54"/>
<stop offset="1" stop-color="#8C8C8C" stop-opacity="0"/>
</linearGradient>
<linearGradient id="paint14_linear_55_129" x1="720" y1="72.3502" x2="720" y2="73.8048" gradientUnits="userSpaceOnUse">
<stop stop-color="#8C8C8C" stop-opacity="0"/>
<stop offset="0.469" stop-color="white" stop-opacity="0.54"/>
<stop offset="1" stop-color="#8C8C8C" stop-opacity="0"/>
</linearGradient>
<linearGradient id="paint15_linear_55_129" x1="720" y1="19.0708" x2="720" y2="20.5253" gradientUnits="userSpaceOnUse">
<stop stop-color="#8C8C8C" stop-opacity="0"/>
<stop offset="0.469" stop-color="white" stop-opacity="0.54"/>
<stop offset="1" stop-color="#8C8C8C" stop-opacity="0"/>
</linearGradient>
<linearGradient id="paint16_linear_55_129" x1="-1354.25" y1="-86.7625" x2="-1354.25" y2="874.537" gradientUnits="userSpaceOnUse">
<stop stop-color="#8C8C8C" stop-opacity="0"/>
<stop offset="0.469" stop-color="white" stop-opacity="0.54"/>
<stop offset="1" stop-color="#8C8C8C" stop-opacity="0"/>
</linearGradient>
<linearGradient id="paint17_linear_55_129" x1="-1247.85" y1="-86.7625" x2="-1247.85" y2="874.537" gradientUnits="userSpaceOnUse">
<stop stop-color="#8C8C8C" stop-opacity="0"/>
<stop offset="0.469" stop-color="white" stop-opacity="0.54"/>
<stop offset="1" stop-color="#8C8C8C" stop-opacity="0"/>
</linearGradient>
<linearGradient id="paint18_linear_55_129" x1="-1141.46" y1="-86.7625" x2="-1141.46" y2="874.537" gradientUnits="userSpaceOnUse">
<stop stop-color="#8C8C8C" stop-opacity="0"/>
<stop offset="0.469" stop-color="white" stop-opacity="0.54"/>
<stop offset="1" stop-color="#8C8C8C" stop-opacity="0"/>
</linearGradient>
<linearGradient id="paint19_linear_55_129" x1="-1035.07" y1="-86.7625" x2="-1035.07" y2="874.537" gradientUnits="userSpaceOnUse">
<stop stop-color="#8C8C8C" stop-opacity="0"/>
<stop offset="0.469" stop-color="white" stop-opacity="0.54"/>
<stop offset="1" stop-color="#8C8C8C" stop-opacity="0"/>
</linearGradient>
<linearGradient id="paint20_linear_55_129" x1="-928.686" y1="-86.7625" x2="-928.686" y2="874.537" gradientUnits="userSpaceOnUse">
<stop stop-color="#8C8C8C" stop-opacity="0"/>
<stop offset="0.469" stop-color="white" stop-opacity="0.54"/>
<stop offset="1" stop-color="#8C8C8C" stop-opacity="0"/>
</linearGradient>
<linearGradient id="paint21_linear_55_129" x1="-822.296" y1="-86.7625" x2="-822.296" y2="874.537" gradientUnits="userSpaceOnUse">
<stop stop-color="#8C8C8C" stop-opacity="0"/>
<stop offset="0.469" stop-color="white" stop-opacity="0.54"/>
<stop offset="1" stop-color="#8C8C8C" stop-opacity="0"/>
</linearGradient>
<linearGradient id="paint22_linear_55_129" x1="-715.901" y1="-86.7625" x2="-715.901" y2="874.532" gradientUnits="userSpaceOnUse">
<stop stop-color="#8C8C8C" stop-opacity="0"/>
<stop offset="0.469" stop-color="white" stop-opacity="0.54"/>
<stop offset="1" stop-color="#8C8C8C" stop-opacity="0"/>
</linearGradient>
<linearGradient id="paint23_linear_55_129" x1="-609.513" y1="-86.7625" x2="-609.513" y2="874.532" gradientUnits="userSpaceOnUse">
<stop stop-color="#8C8C8C" stop-opacity="0"/>
<stop offset="0.469" stop-color="white" stop-opacity="0.54"/>
<stop offset="1" stop-color="#8C8C8C" stop-opacity="0"/>
</linearGradient>
<linearGradient id="paint24_linear_55_129" x1="-503.124" y1="-86.7625" x2="-503.124" y2="874.537" gradientUnits="userSpaceOnUse">
<stop stop-color="#8C8C8C" stop-opacity="0"/>
<stop offset="0.469" stop-color="white" stop-opacity="0.54"/>
<stop offset="1" stop-color="#8C8C8C" stop-opacity="0"/>
</linearGradient>
<linearGradient id="paint25_linear_55_129" x1="-396.733" y1="-86.7625" x2="-396.733" y2="874.532" gradientUnits="userSpaceOnUse">
<stop stop-color="#8C8C8C" stop-opacity="0"/>
<stop offset="0.469" stop-color="white" stop-opacity="0.54"/>
<stop offset="1" stop-color="#8C8C8C" stop-opacity="0"/>
</linearGradient>
<linearGradient id="paint26_linear_55_129" x1="-290.342" y1="-86.7625" x2="-290.342" y2="874.537" gradientUnits="userSpaceOnUse">
<stop stop-color="#8C8C8C" stop-opacity="0"/>
<stop offset="0.469" stop-color="white" stop-opacity="0.54"/>
<stop offset="1" stop-color="#8C8C8C" stop-opacity="0"/>
</linearGradient>
<linearGradient id="paint27_linear_55_129" x1="-183.951" y1="-86.7625" x2="-183.951" y2="874.537" gradientUnits="userSpaceOnUse">
<stop stop-color="#8C8C8C" stop-opacity="0"/>
<stop offset="0.469" stop-color="white" stop-opacity="0.54"/>
<stop offset="1" stop-color="#8C8C8C" stop-opacity="0"/>
</linearGradient>
<linearGradient id="paint28_linear_55_129" x1="-77.5626" y1="-86.7625" x2="-77.5626" y2="874.532" gradientUnits="userSpaceOnUse">
<stop stop-color="#8C8C8C" stop-opacity="0"/>
<stop offset="0.469" stop-color="white" stop-opacity="0.54"/>
<stop offset="1" stop-color="#8C8C8C" stop-opacity="0"/>
</linearGradient>
<linearGradient id="paint29_linear_55_129" x1="28.8266" y1="-86.7625" x2="28.8266" y2="874.532" gradientUnits="userSpaceOnUse">
<stop stop-color="#8C8C8C" stop-opacity="0"/>
<stop offset="0.469" stop-color="white" stop-opacity="0.54"/>
<stop offset="1" stop-color="#8C8C8C" stop-opacity="0"/>
</linearGradient>
<linearGradient id="paint30_linear_55_129" x1="135.216" y1="-86.7625" x2="135.216" y2="874.532" gradientUnits="userSpaceOnUse">
<stop stop-color="#8C8C8C" stop-opacity="0"/>
<stop offset="0.469" stop-color="white" stop-opacity="0.54"/>
<stop offset="1" stop-color="#8C8C8C" stop-opacity="0"/>
</linearGradient>
<linearGradient id="paint31_linear_55_129" x1="241.608" y1="-86.7625" x2="241.608" y2="874.537" gradientUnits="userSpaceOnUse">
<stop stop-color="#8C8C8C" stop-opacity="0"/>
<stop offset="0.469" stop-color="white" stop-opacity="0.54"/>
<stop offset="1" stop-color="#8C8C8C" stop-opacity="0"/>
</linearGradient>
<linearGradient id="paint32_linear_55_129" x1="347.997" y1="-86.7625" x2="347.997" y2="874.532" gradientUnits="userSpaceOnUse">
<stop stop-color="#8C8C8C" stop-opacity="0"/>
<stop offset="0.469" stop-color="white" stop-opacity="0.54"/>
<stop offset="1" stop-color="#8C8C8C" stop-opacity="0"/>
</linearGradient>
<linearGradient id="paint33_linear_55_129" x1="454.389" y1="-86.7625" x2="454.389" y2="874.537" gradientUnits="userSpaceOnUse">
<stop stop-color="#8C8C8C" stop-opacity="0"/>
<stop offset="0.469" stop-color="white" stop-opacity="0.54"/>
<stop offset="1" stop-color="#8C8C8C" stop-opacity="0"/>
</linearGradient>
<linearGradient id="paint34_linear_55_129" x1="560.778" y1="-86.7673" x2="560.778" y2="874.532" gradientUnits="userSpaceOnUse">
<stop stop-color="#8C8C8C" stop-opacity="0"/>
<stop offset="0.469" stop-color="white" stop-opacity="0.54"/>
<stop offset="1" stop-color="#8C8C8C" stop-opacity="0"/>
</linearGradient>
<linearGradient id="paint35_linear_55_129" x1="667.152" y1="-86.7625" x2="667.152" y2="874.537" gradientUnits="userSpaceOnUse">
<stop stop-color="#8C8C8C" stop-opacity="0"/>
<stop offset="0.469" stop-color="white" stop-opacity="0.54"/>
<stop offset="1" stop-color="#8C8C8C" stop-opacity="0"/>
</linearGradient>
<linearGradient id="paint36_linear_55_129" x1="772.848" y1="-86.7673" x2="772.848" y2="874.532" gradientUnits="userSpaceOnUse">
<stop stop-color="#8C8C8C" stop-opacity="0"/>
<stop offset="0.469" stop-color="white" stop-opacity="0.54"/>
<stop offset="1" stop-color="#8C8C8C" stop-opacity="0"/>
</linearGradient>
<linearGradient id="paint37_linear_55_129" x1="879.223" y1="-86.7625" x2="879.223" y2="874.537" gradientUnits="userSpaceOnUse">
<stop stop-color="#8C8C8C" stop-opacity="0"/>
<stop offset="0.469" stop-color="white" stop-opacity="0.54"/>
<stop offset="1" stop-color="#8C8C8C" stop-opacity="0"/>
</linearGradient>
<linearGradient id="paint38_linear_55_129" x1="985.612" y1="-86.7673" x2="985.612" y2="874.532" gradientUnits="userSpaceOnUse">
<stop stop-color="#8C8C8C" stop-opacity="0"/>
<stop offset="0.469" stop-color="white" stop-opacity="0.54"/>
<stop offset="1" stop-color="#8C8C8C" stop-opacity="0"/>
</linearGradient>
<linearGradient id="paint39_linear_55_129" x1="1092.01" y1="-86.7625" x2="1092.01" y2="874.537" gradientUnits="userSpaceOnUse">
<stop stop-color="#8C8C8C" stop-opacity="0"/>
<stop offset="0.469" stop-color="white" stop-opacity="0.54"/>
<stop offset="1" stop-color="#8C8C8C" stop-opacity="0"/>
</linearGradient>
<linearGradient id="paint40_linear_55_129" x1="1198.39" y1="-86.7625" x2="1198.39" y2="874.537" gradientUnits="userSpaceOnUse">
<stop stop-color="#8C8C8C" stop-opacity="0"/>
<stop offset="0.469" stop-color="white" stop-opacity="0.54"/>
<stop offset="1" stop-color="#8C8C8C" stop-opacity="0"/>
</linearGradient>
<linearGradient id="paint41_linear_55_129" x1="1304.78" y1="-86.7625" x2="1304.78" y2="874.537" gradientUnits="userSpaceOnUse">
<stop stop-color="#8C8C8C" stop-opacity="0"/>
<stop offset="0.469" stop-color="white" stop-opacity="0.54"/>
<stop offset="1" stop-color="#8C8C8C" stop-opacity="0"/>
</linearGradient>
<linearGradient id="paint42_linear_55_129" x1="1411.17" y1="-86.7625" x2="1411.17" y2="874.542" gradientUnits="userSpaceOnUse">
<stop stop-color="#8C8C8C" stop-opacity="0"/>
<stop offset="0.469" stop-color="white" stop-opacity="0.54"/>
<stop offset="1" stop-color="#8C8C8C" stop-opacity="0"/>
</linearGradient>
<linearGradient id="paint43_linear_55_129" x1="1517.56" y1="-86.7625" x2="1517.56" y2="874.537" gradientUnits="userSpaceOnUse">
<stop stop-color="#8C8C8C" stop-opacity="0"/>
<stop offset="0.469" stop-color="white" stop-opacity="0.54"/>
<stop offset="1" stop-color="#8C8C8C" stop-opacity="0"/>
</linearGradient>
<linearGradient id="paint44_linear_55_129" x1="1623.95" y1="-86.7625" x2="1623.95" y2="874.532" gradientUnits="userSpaceOnUse">
<stop stop-color="#8C8C8C" stop-opacity="0"/>
<stop offset="0.469" stop-color="white" stop-opacity="0.54"/>
<stop offset="1" stop-color="#8C8C8C" stop-opacity="0"/>
</linearGradient>
<linearGradient id="paint45_linear_55_129" x1="1730.35" y1="-86.7625" x2="1730.35" y2="874.537" gradientUnits="userSpaceOnUse">
<stop stop-color="#8C8C8C" stop-opacity="0"/>
<stop offset="0.469" stop-color="white" stop-opacity="0.54"/>
<stop offset="1" stop-color="#8C8C8C" stop-opacity="0"/>
</linearGradient>
<linearGradient id="paint46_linear_55_129" x1="1836.73" y1="-86.7625" x2="1836.73" y2="874.542" gradientUnits="userSpaceOnUse">
<stop stop-color="#8C8C8C" stop-opacity="0"/>
<stop offset="0.469" stop-color="white" stop-opacity="0.54"/>
<stop offset="1" stop-color="#8C8C8C" stop-opacity="0"/>
</linearGradient>
<linearGradient id="paint47_linear_55_129" x1="1943.13" y1="-86.7625" x2="1943.13" y2="874.537" gradientUnits="userSpaceOnUse">
<stop stop-color="#8C8C8C" stop-opacity="0"/>
<stop offset="0.469" stop-color="white" stop-opacity="0.54"/>
<stop offset="1" stop-color="#8C8C8C" stop-opacity="0"/>
</linearGradient>
<linearGradient id="paint48_linear_55_129" x1="2049.51" y1="-86.7625" x2="2049.51" y2="874.537" gradientUnits="userSpaceOnUse">
<stop stop-color="#8C8C8C" stop-opacity="0"/>
<stop offset="0.469" stop-color="white" stop-opacity="0.54"/>
<stop offset="1" stop-color="#8C8C8C" stop-opacity="0"/>
</linearGradient>
<linearGradient id="paint49_linear_55_129" x1="2155.91" y1="-86.7625" x2="2155.91" y2="874.537" gradientUnits="userSpaceOnUse">
<stop stop-color="#8C8C8C" stop-opacity="0"/>
<stop offset="0.469" stop-color="white" stop-opacity="0.54"/>
<stop offset="1" stop-color="#8C8C8C" stop-opacity="0"/>
</linearGradient>
<linearGradient id="paint50_linear_55_129" x1="2262.3" y1="-86.7673" x2="2262.3" y2="874.532" gradientUnits="userSpaceOnUse">
<stop stop-color="#8C8C8C" stop-opacity="0"/>
<stop offset="0.469" stop-color="white" stop-opacity="0.54"/>
<stop offset="1" stop-color="#8C8C8C" stop-opacity="0"/>
</linearGradient>
<linearGradient id="paint51_linear_55_129" x1="2368.69" y1="-86.7717" x2="2368.69" y2="874.532" gradientUnits="userSpaceOnUse">
<stop stop-color="#8C8C8C" stop-opacity="0"/>
<stop offset="0.469" stop-color="white" stop-opacity="0.54"/>
<stop offset="1" stop-color="#8C8C8C" stop-opacity="0"/>
</linearGradient>
<linearGradient id="paint52_linear_55_129" x1="2475.08" y1="-86.7673" x2="2475.08" y2="874.532" gradientUnits="userSpaceOnUse">
<stop stop-color="#8C8C8C" stop-opacity="0"/>
<stop offset="0.469" stop-color="white" stop-opacity="0.54"/>
<stop offset="1" stop-color="#8C8C8C" stop-opacity="0"/>
</linearGradient>
<linearGradient id="paint53_linear_55_129" x1="2581.46" y1="-86.7673" x2="2581.46" y2="874.532" gradientUnits="userSpaceOnUse">
<stop stop-color="#8C8C8C" stop-opacity="0"/>
<stop offset="0.469" stop-color="white" stop-opacity="0.54"/>
<stop offset="1" stop-color="#8C8C8C" stop-opacity="0"/>
</linearGradient>
<linearGradient id="paint54_linear_55_129" x1="2687.86" y1="-86.7673" x2="2687.86" y2="874.532" gradientUnits="userSpaceOnUse">
<stop stop-color="#8C8C8C" stop-opacity="0"/>
<stop offset="0.469" stop-color="white" stop-opacity="0.54"/>
<stop offset="1" stop-color="#8C8C8C" stop-opacity="0"/>
</linearGradient>
<linearGradient id="paint55_linear_55_129" x1="2794.25" y1="-86.7673" x2="2794.25" y2="874.532" gradientUnits="userSpaceOnUse">
<stop stop-color="#8C8C8C" stop-opacity="0"/>
<stop offset="0.469" stop-color="white" stop-opacity="0.54"/>
<stop offset="1" stop-color="#8C8C8C" stop-opacity="0"/>
</linearGradient>
<clipPath id="clip0_55_129">
<rect width="1440" height="785" fill="white"/>
</clipPath>
</defs>
</svg>
